<?xml version="1.0" standalone="no"?><!DOCTYPE svg PUBLIC "-//W3C//DTD SVG 1.1//EN" "http://www.w3.org/Graphics/SVG/1.1/DTD/svg11.dtd"><svg t="1691471046517" class="icon" viewBox="0 0 1024 1024" version="1.1" xmlns="http://www.w3.org/2000/svg" p-id="18354" xmlns:xlink="http://www.w3.org/1999/xlink" width="200" height="200"><path d="M564.032 932.288H123.392a32 32 0 0 1-32-32v-774.4a32 32 0 0 1 32-32H907.52a32 32 0 0 1 32 32V560a32 32 0 0 0 64 0V125.952c0-52.928-43.072-96-96-96H123.392c-52.928 0-96 43.072-96 96v774.4c0 52.928 43.072 96 96 96h440.576a32 32 0 0 0 0.064-64.064z" p-id="18355"></path><path d="M179.136 491.264c3.136 21.888 21.824 23.424 39.04 31.232 1.536 3.136 7.808 4.672 9.344 4.672 3.136 0 6.272-3.136 4.672-6.272 0-4.672-3.136-9.344-3.136-15.616-3.072-28.096 25.024-93.632 37.504-120.192 54.656-121.792 54.656-120.256 53.12-132.736 0-6.272-12.48-28.032-23.424-28.032-12.48 1.408-57.792 35.776-70.272 45.184-9.408 7.808-17.216 12.48-17.216 25.024 0 3.136 0 9.344 4.672 9.344a39.232 39.232 0 0 0 10.944-6.272l39.04-20.288h1.536c-10.88 17.216-40.576 67.2-65.536 121.792-9.408 20.352-23.424 70.272-20.288 92.16zM583.552 222.656c-1.472-9.344-24.96-28.096-42.112-26.56-28.096 3.136-90.624 43.712-123.392 89.024-28.096 38.976-53.056 95.232-48.448 143.68 6.272 37.504 32.768 73.344 73.408 65.536 101.504-17.216 163.968-139.008 154.56-220.16-1.536-17.152-6.208-38.976-26.432-42.176 3.136-3.136 12.416-4.608 12.416-9.344z m-60.864 160.832l-37.504 43.776c-9.344 9.344-34.368 29.696-46.784 31.232-12.544 1.536-17.216-23.424-17.216-31.232-3.136-45.312 25.024-110.912 96.832-162.432 0 3.136 1.536 7.808 4.672 7.808 4.672 0 14.08-17.216 25.024-18.752 12.48-1.536 18.752 14.08 18.752 23.424 3.072 28.096-28.16 82.752-43.776 106.176zM825.6 196.096c-1.536-9.344-24.96-28.096-42.112-26.56-26.56 3.136-89.088 43.776-121.792 90.56-28.096 39.04-53.12 95.232-48.448 143.68 4.672 35.904 31.232 73.408 70.272 65.6 103.104-18.688 165.568-138.944 156.16-221.76-1.536-17.216-6.272-38.976-26.56-42.112 3.136-3.136 12.48-4.672 12.48-9.408z m-60.864 160.896l-37.504 43.712c-9.344 9.344-34.304 29.696-46.848 31.232-12.416 1.536-17.152-23.424-17.152-31.232-3.136-45.312 25.024-109.312 96.832-162.368 0 3.072 1.536 7.744 4.672 7.744 4.672 0 14.08-17.216 25.024-18.688 12.416-1.6 18.752 14.08 18.752 23.36 3.136 28.096-28.16 82.752-43.776 106.24zM247.808 659.072c257.664-92.096 554.368-115.584 554.368-115.584-34.304 0-98.368 6.272-98.368 6.272 17.216-3.136 48.448-6.272 48.448-6.272-356.032 21.888-548.16 115.584-548.16 115.584s-12.48 7.808 0 14.08c6.272 3.072 43.712-14.08 43.712-14.08z" fill="#040000" p-id="18356"></path><path d="M297.792 684.032c257.664-92.16 554.368-115.584 554.368-115.584-35.968 1.536-98.368 6.272-98.368 6.272 17.216-1.536 48.384-6.272 48.384-6.272-355.968 21.952-548.096 115.584-548.096 115.584s-12.48 7.808 0 14.08c6.208 3.136 43.712-14.08 43.712-14.08zM802.176 724.48c-41.344 0-75.136 33.728-75.136 75.072a75.2 75.2 0 0 0 150.272 0c0-41.28-33.728-75.072-75.136-75.072z m0 125.376a50.368 50.368 0 0 1-50.304-50.304c0-27.648 22.656-50.24 50.304-50.24s50.24 22.656 50.24 50.24a50.304 50.304 0 0 1-50.24 50.304z" fill="#040000" p-id="18357"></path><path d="M961.344 743.744h-7.36l-0.448-1.408-2.048 0.832 1.728-1.344c-1.344-3.392-2.432-6.144-3.648-8.768l-0.576-1.344 5.12-5.12a50.944 50.944 0 0 0 0-72.064l-6.784-6.848a50.752 50.752 0 0 0-72.064 0l-5.12 5.184-1.344-0.64a137.088 137.088 0 0 0-9.472-3.84l-1.344-0.512v-7.424a51.008 51.008 0 0 0-50.944-50.944h-9.6a51.072 51.072 0 0 0-51.008 50.944v7.424l-1.344 0.512c-3.584 1.344-6.656 2.56-9.344 3.84l-1.408 0.64-5.056-5.184a50.752 50.752 0 0 0-36.096-14.912 50.752 50.752 0 0 0-36.032 14.912l-6.848 6.848a50.752 50.752 0 0 0 0 72.064l5.184 5.12-0.576 1.344a148.672 148.672 0 0 0-3.648 8.768l-0.832 1.984h-7.296a51.136 51.136 0 0 0-51.008 51.072v9.6c0 28.096 22.848 50.944 51.008 50.944h7.296l0.768 2.112c1.344 3.392 2.496 6.144 3.712 8.768l0.512 1.344-5.12 5.12a50.88 50.88 0 0 0 0 72.064l6.848 6.848c9.6 9.6 22.4 14.912 36.032 14.912s26.496-5.312 36.032-14.912l5.12-5.184 1.344 0.64c2.816 1.28 5.952 2.496 9.472 3.84l1.344 0.576v7.36c0 28.032 22.848 50.944 51.008 50.944h9.536a51.072 51.072 0 0 0 51.008-50.944v-7.36l1.344-0.576c3.648-1.344 6.656-2.56 9.472-3.84l1.344-0.64 5.056 5.184c9.6 9.6 22.464 14.912 36.096 14.912a50.752 50.752 0 0 0 36.032-14.912l6.848-6.848a50.752 50.752 0 0 0 0-72.064l-5.12-5.12 0.512-1.344c1.216-2.624 2.368-5.504 3.712-8.768l-2.048-0.768h2.368l0.448-1.344h7.36a51.008 51.008 0 0 0 50.944-50.944v-9.6a51.2 51.2 0 0 0-51.072-51.136z m26.176 60.672a28.352 28.352 0 0 1-0.512 5.12l-0.448 1.472-0.32 1.088c-0.192 0.64-0.384 1.344-0.768 2.176-0.256 0.832-0.704 1.472-1.28 2.56l-0.256 0.512-0.704 1.216a21.76 21.76 0 0 1-2.432 3.136l-0.448 0.512a26.496 26.496 0 0 1-16.704 8.256l-0.896 0.064a8.96 8.96 0 0 1-1.472 0.128h-25.6l-0.448 1.664c-3.2 12.928-8.704 25.728-16.128 38.016l-0.96 1.472 18.432 18.432a25.28 25.28 0 0 1 7.552 19.392l-0.064 1.024c-0.064 1.152-0.128 2.368-0.448 3.648a4.928 4.928 0 0 1-0.448 1.28l-0.256 1.088-0.768 2.304-1.344 2.432-0.256 0.64-0.704 1.28a29.376 29.376 0 0 1-3.328 4.032l-6.784 6.72a25.984 25.984 0 0 1-5.248 4.032l-0.64 0.32 1.088 1.856-1.6-1.536c-0.64 0.32-1.216 0.704-1.92 0.96-0.768 0.384-1.472 0.576-2.176 0.832l0.576 2.048-1.28-1.92-0.576 0.192c-0.256 0.064-0.704 0.32-1.152 0.384l-3.584 0.512-1.92 0.064a25.856 25.856 0 0 1-18.624-7.616l-18.368-18.368-1.408 0.96a139.968 139.968 0 0 1-38.144 16.128l-1.664 0.448v25.536a8.32 8.32 0 0 1-0.128 1.6l-0.064 0.768a26.432 26.432 0 0 1-8.256 16.832c-0.128 0.192-0.384 0.32-0.768 0.64a33.92 33.92 0 0 1-2.88 2.176l-1.28 0.832-0.768 0.256a34.88 34.88 0 0 1-2.24 1.28 16.384 16.384 0 0 1-2.752 0.768l-0.576 0.256-1.408 0.384a27.776 27.776 0 0 1-5.12 0.512h-9.6a28.48 28.48 0 0 1-6.592-0.96l-1.088-0.32c-0.64-0.128-1.344-0.384-2.24-0.704l-2.624-1.344-0.512-0.256-1.088-0.64a21.76 21.76 0 0 1-3.136-2.432l-0.576-0.512a25.6 25.6 0 0 1-8.192-16.704l-0.128-0.768-0.128-1.6v-25.856l-1.664-0.448a139.584 139.584 0 0 1-38.08-16.128l-1.408-1.024-18.432 18.496a25.024 25.024 0 0 1-15.168 7.296 21.632 21.632 0 0 1-3.392 0.32l-1.856-0.128a29.184 29.184 0 0 1-4.864-0.832l-0.64-0.256-0.576 2.176v-2.304c-0.704-0.256-1.344-0.384-2.176-0.832-0.768-0.256-1.344-0.64-2.496-1.28l-0.64-0.32c-0.384-0.128-0.768-0.448-1.216-0.704-1.408-1.024-2.88-2.048-4.032-3.264l-6.784-6.784a25.6 25.6 0 0 1-3.264-4.032l-0.832-1.472-0.448-0.832c-0.32-0.64-0.768-1.28-1.024-2.048-0.384-0.832-0.576-1.536-0.832-2.24l-0.32-1.216a23.488 23.488 0 0 1-0.896-5.184l-0.064-0.576c0-1.344 0-2.624 0.32-4.544a25.536 25.536 0 0 1 7.232-14.848l18.432-18.432-0.96-1.472a143.68 143.68 0 0 1-16.128-38.08l-0.448-1.664h-25.6c-0.64 0-1.216 0-1.664-0.128l-0.256 2.112-0.448-2.24a25.92 25.92 0 0 1-19.584-11.84c-0.32-0.384-0.448-0.832-0.64-1.024l-2.048 0.832 1.728-1.344-0.192-0.512c-0.384-0.64-0.832-1.344-1.152-2.24-0.384-0.768-0.576-1.472-0.96-2.624l-0.128-0.64-0.448-1.472a26.048 26.048 0 0 1-0.512-5.056v-9.6c0-1.664 0.192-3.456 0.512-5.184l0.448-1.408 0.384-1.088a8.192 8.192 0 0 1 0.704-2.24 23.424 23.424 0 0 1 1.28-2.496l0.256-0.576 0.704-1.152c0.704-1.152 1.472-1.984 2.496-3.2a24.704 24.704 0 0 1 3.84-3.584 27.008 27.008 0 0 1 13.312-5.12l0.768-0.064a10.624 10.624 0 0 1 1.536-0.128h25.664l0.448-1.664c3.2-13.056 8.704-25.792 16.128-38.08l0.96-1.472-18.432-18.304a25.984 25.984 0 0 1-7.36-15.232c-0.192-1.536-0.192-2.88-0.192-4.16l0.128-1.024a19.2 19.2 0 0 1 0.832-4.928l0.32-1.28 0.704-2.112 1.152-1.984 0.256-0.512-1.92-1.088 2.24 0.512 0.704-1.28a28.992 28.992 0 0 1 3.264-4.032l6.784-6.784a33.28 33.28 0 0 1 5.312-4.032l1.088-0.576 1.984-1.088 2.112-0.704 1.344-0.384c0.256-0.128 0.64-0.32 1.216-0.32a19.136 19.136 0 0 1 3.84-0.512l0.832-0.064 0.768-0.064c1.088 0 2.176 0.128 3.84 0.32 5.76 0.832 10.944 3.328 14.784 7.296l18.432 18.368 1.408-0.896c12.224-7.424 25.088-12.864 38.144-16.192l1.664-0.384v-25.664l0.064-1.536 0.128-0.704a25.728 25.728 0 0 1 8.192-16.832l0.768-0.64a58.88 58.88 0 0 1 2.944-2.24l1.344-0.768 0.448-0.256 2.496-1.28 2.112-0.704 1.152-0.32 1.344-0.384c1.792 0.064 3.648-0.064 5.312-0.064h9.6c1.664 0 3.456 0.128 5.12 0.512l1.472 0.384 1.024 0.384a12.096 12.096 0 0 1 2.24 0.64l2.624 1.344 0.64 0.384a47.168 47.168 0 0 1 4.736 3.392 27.008 27.008 0 0 1 8.192 16.96l0.064 0.64a10.496 10.496 0 0 1 0.128 1.472v25.664l1.664 0.384c13.056 3.2 25.792 8.768 38.144 16.128l1.408 0.96 18.368-18.368a25.344 25.344 0 0 1 15.424-7.296 20.096 20.096 0 0 1 3.264-0.32l0.768 0.064 1.152 0.064a32 32 0 0 1 5.248 1.024l0.64 0.192c0.704 0.192 1.472 0.384 2.24 0.832 0.832 0.256 1.408 0.704 2.496 1.28l0.704 0.32a39.04 39.04 0 0 1 5.248 3.968l6.72 6.784a25.984 25.984 0 0 1 4.16 5.44l0.448 0.896 1.088 1.984 0.768 2.304 0.32 1.216c0.128 0.256 0.256 0.64 0.32 1.152 0.384 1.28 0.448 2.496 0.576 3.84v0.832a25.664 25.664 0 0 1-7.552 19.392l-18.432 18.432 0.96 1.472c7.424 12.16 12.928 25.088 16.128 38.016l0.448 1.664h25.664l1.6 0.128 0.768 0.064a26.816 26.816 0 0 1 16.832 8.256c0.128 0.128 0.192 0.384 0.64 0.832a19.008 19.008 0 0 1 2.112 2.816l0.96 1.6 0.256 0.512c0.384 0.64 0.768 1.344 1.088 2.112 0.384 0.832 0.512 1.408 0.704 2.112l0.384 1.152c0.064 0.448 0.256 0.896 0.448 1.472a27.712 27.712 0 0 1 0.448 5.12v9.408z" fill="#040000" p-id="18358"></path></svg>