<?xml version="1.0" standalone="no"?><!DOCTYPE svg PUBLIC "-//W3C//DTD SVG 1.1//EN" "http://www.w3.org/Graphics/SVG/1.1/DTD/svg11.dtd"><svg t="1691470919098" class="icon" viewBox="0 0 1024 1024" version="1.1" xmlns="http://www.w3.org/2000/svg" p-id="17250" xmlns:xlink="http://www.w3.org/1999/xlink" width="200" height="200"><path d="M366.326 725.37c0 10.809 4.449 21.548 12.09 29.188 7.64 7.641 18.381 12.09 29.184 12.09 10.808 0 21.543-4.449 29.188-12.09 7.641-7.64 12.085-18.38 12.085-29.187 0-10.803-4.444-21.544-12.085-29.185-7.646-7.641-18.38-12.09-29.188-12.09-10.803 0-21.543 4.449-29.184 12.09-7.64 7.64-12.09 18.382-12.09 29.185z m0 0M568.114 725.37c0 10.809 4.448 21.548 12.09 29.188 7.64 7.641 18.381 12.09 29.184 12.09 10.808 0 21.548-4.449 29.188-12.09 7.64-7.64 12.09-18.38 12.09-29.187 0-10.803-4.45-21.544-12.09-29.185-7.641-7.641-18.38-12.09-29.188-12.09-10.803 0-21.544 4.449-29.185 12.09-7.64 7.64-12.089 18.382-12.089 29.185z m0 0M922.491 253.21L508.586 65.895 94.686 253.21l413.9 187.32 365.887-166.342c-1.754 80.37-12.328 169.64-18.512 177.812h52.051c-6.357-8.172-17.375-102.301-18.643-184.556l33.122-14.234z m0 0" fill="#333333" p-id="17251"></path><path d="M508.586 480.521L253.26 360.847c-60.52 63.417-97.803 149.19-97.803 243.558 0 194.716 158.413 353.134 353.13 353.134S861.72 799.121 861.72 604.405c0-95.792-38.467-182.68-100.61-246.36L508.586 480.522z m298.047 121.88c0.01 0.674 0.054 1.332 0.054 2.005 0 164.373-133.727 298.1-298.1 298.1-160.929 0-292.4-128.207-297.838-287.834 1.126 1.672 2.251 3.338 3.484 4.951 53.008 69.454 182.632 59.625 289.524-21.957a370.798 370.798 0 0 0 41.322-36.722c-1.773 57.68-11.758 94.418-47.832 123.154 48.9-21.714 77.815-65.463 94.91-108.93 71.305 64.937 162.147 81.553 206.816 36.288a78.815 78.815 0 0 0 7.66-9.054z m0 0" fill="#333333" p-id="17252"></path></svg>