<?xml version="1.0" standalone="no"?><!DOCTYPE svg PUBLIC "-//W3C//DTD SVG 1.1//EN" "http://www.w3.org/Graphics/SVG/1.1/DTD/svg11.dtd"><svg t="1691466598350" class="icon" viewBox="0 0 1024 1024" version="1.1" xmlns="http://www.w3.org/2000/svg" p-id="7630" xmlns:xlink="http://www.w3.org/1999/xlink" width="200" height="200"><path d="M24.486957 180.313043c-13.356522 0-22.26087-8.904348-22.26087-22.260869s8.904348-22.26087 22.26087-22.26087L1001.73913 133.565217c13.356522 0 22.26087 8.904348 22.26087 22.26087s-8.904348 22.26087-22.26087 22.26087l-977.252173 2.226086zM89.043478 162.504348v233.73913" p-id="7631"></path><path d="M91.269565 434.086957m-42.295652 0a42.295652 42.295652 0 1 0 84.591304 0 42.295652 42.295652 0 1 0-84.591304 0Z" p-id="7632"></path><path d="M759.095652 400.695652h-512c-24.486957 0-44.521739-20.034783-44.521739-44.521739V149.147826H801.391304V356.173913c2.226087 24.486957-17.808696 44.521739-42.295652 44.521739zM69.008696 171.408696h44.521739v227.060869h-44.521739zM959.443478 647.791304H356.173913c-57.878261 0-106.852174-44.521739-106.852174-100.173913s46.747826-100.173913 106.852174-100.173913h603.269565v44.521739H356.173913c-33.391304 0-62.330435 24.486957-62.330435 55.652174s26.713043 55.652174 62.330435 55.652174h603.269565v44.521739z" p-id="7633"></path><path d="M870.4 471.930435h44.521739V623.304348h-44.521739zM870.4 892.66087H175.86087c-57.878261 0-106.852174-44.521739-106.852174-100.173913s46.747826-100.173913 106.852174-100.173914h694.53913v44.52174H175.86087c-33.391304 0-62.330435 24.486957-62.330435 55.652174s26.713043 55.652174 62.330435 55.652173h694.53913v44.52174z" p-id="7634"></path><path d="M781.356522 716.8h44.521739V868.173913h-44.521739zM109.078261 730.156522h44.521739v126.886956h-44.521739z" p-id="7635"></path></svg>