<?xml version="1.0" standalone="no"?><!DOCTYPE svg PUBLIC "-//W3C//DTD SVG 1.1//EN" "http://www.w3.org/Graphics/SVG/1.1/DTD/svg11.dtd"><svg t="1691633618405" class="icon" viewBox="0 0 1024 1024" version="1.1" xmlns="http://www.w3.org/2000/svg" p-id="2828" xmlns:xlink="http://www.w3.org/1999/xlink" width="200" height="200"><path d="M128 640a42.666667 42.666667 0 0 1 0-85.333333h768a42.666667 42.666667 0 0 1 0 85.333333h-42.666667v213.333333a85.333333 85.333333 0 0 1-85.333333 85.333334H256a85.333333 85.333333 0 0 1-85.333333-85.333334v-213.333333H128z m724.266667-276.266667a42.666667 42.666667 0 0 1 0 60.330667L764.373333 512H316.416a213.376 213.376 0 0 1 367.829333-40.533333l107.690667-107.690667a42.666667 42.666667 0 0 1 60.330667 0zM512 85.333333a128 128 0 1 1 0 256 128 128 0 0 1 0-256z" p-id="2829"></path></svg>